<svg version="1.1" viewBox="0.0 0.0 236.4304461942257 211.07611548556432" fill="none" stroke="none" stroke-linecap="square" stroke-miterlimit="10" xmlns:xlink="http://www.w3.org/1999/xlink" xmlns="http://www.w3.org/2000/svg"><clipPath id="p.0"><path d="m0 0l236.43045 0l0 211.07611l-236.43045 0l0 -211.07611z" clip-rule="nonzero"/></clipPath><g clip-path="url(#p.0)"><path fill="#000000" fill-opacity="0.0" d="m0 0l236.43045 0l0 211.07611l-236.43045 0z" fill-rule="evenodd"/><path fill="#fff2cc" d="m27.279528 104.391075l56.25197 0l0 68.95519l-9.375511 9.375519l-46.876457 0z" fill-rule="evenodd"/><path fill="#cbc1a3" d="m74.15598 182.72179l1.8750992 -7.500412l7.500412 -1.8751068z" fill-rule="evenodd"/><path fill="#000000" fill-opacity="0.0" d="m74.15598 182.72179l1.8750992 -7.500412l7.500412 -1.8751068l-9.375511 9.375519l-46.876457 0l0 -78.33071l56.25197 0l0 68.95519" fill-rule="evenodd"/><path fill="#000000" fill-opacity="0.0" d="m34.237534 125.58793l41.102364 0.09448242" fill-rule="evenodd"/><path stroke="#d9d9d9" stroke-width="2.0" stroke-linejoin="round" stroke-linecap="butt" d="m34.237534 125.58793l41.102364 0.09448242" fill-rule="evenodd"/><path fill="#000000" fill-opacity="0.0" d="m34.237534 134.6588l41.102364 0.09448242" fill-rule="evenodd"/><path stroke="#d9d9d9" stroke-width="2.0" stroke-linejoin="round" stroke-linecap="butt" d="m34.237534 134.6588l41.102364 0.09448242" fill-rule="evenodd"/><path fill="#000000" fill-opacity="0.0" d="m34.237534 113.55643l41.102364 0.09449005" fill-rule="evenodd"/><path stroke="#d9d9d9" stroke-width="8.0" stroke-linejoin="round" stroke-linecap="butt" d="m34.237534 113.55643l41.102364 0.09449005" fill-rule="evenodd"/><path fill="#000000" fill-opacity="0.0" d="m34.237534 143.72966l41.102364 0.09448242" fill-rule="evenodd"/><path stroke="#d9d9d9" stroke-width="2.0" stroke-linejoin="round" stroke-linecap="butt" d="m34.237534 143.72966l41.102364 0.09448242" fill-rule="evenodd"/><path fill="#000000" fill-opacity="0.0" d="m34.237534 152.80052l41.102364 0.09449768" fill-rule="evenodd"/><path stroke="#d9d9d9" stroke-width="2.0" stroke-linejoin="round" stroke-linecap="butt" d="m34.237534 152.80052l41.102364 0.09449768" fill-rule="evenodd"/><path fill="#000000" fill-opacity="0.0" d="m34.237534 161.87138l41.102364 0.09449768" fill-rule="evenodd"/><path stroke="#d9d9d9" stroke-width="2.0" stroke-linejoin="round" stroke-linecap="butt" d="m34.237534 161.87138l41.102364 0.09449768" fill-rule="evenodd"/><path fill="#fff2cc" d="m90.814964 19.380577l55.37008 0l0 69.826584l-9.228531 9.228531l-46.14155 0z" fill-rule="evenodd"/><path fill="#cbc1a3" d="m136.95651 98.43569l1.8457031 -7.38282l7.3828278 -1.8457108z" fill-rule="evenodd"/><path fill="#000000" fill-opacity="0.0" d="m136.95651 98.43569l1.8457031 -7.38282l7.3828278 -1.8457108l-9.228531 9.228531l-46.14155 0l0 -79.055115l55.37008 0l0 69.826584" fill-rule="evenodd"/><path fill="#000000" fill-opacity="0.0" d="m97.555115 40.593174l41.10237 0.09449005" fill-rule="evenodd"/><path stroke="#d9d9d9" stroke-width="2.0" stroke-linejoin="round" stroke-linecap="butt" d="m97.555115 40.593174l41.10237 0.09449005" fill-rule="evenodd"/><path fill="#000000" fill-opacity="0.0" d="m97.555115 49.664043l41.10237 0.09448624" fill-rule="evenodd"/><path stroke="#d9d9d9" stroke-width="2.0" stroke-linejoin="round" stroke-linecap="butt" d="m97.555115 49.664043l41.10237 0.09448624" fill-rule="evenodd"/><path fill="#000000" fill-opacity="0.0" d="m97.555115 28.56168l41.10237 0.094488144" fill-rule="evenodd"/><path stroke="#d9d9d9" stroke-width="8.0" stroke-linejoin="round" stroke-linecap="butt" d="m97.555115 28.56168l41.10237 0.094488144" fill-rule="evenodd"/><path fill="#000000" fill-opacity="0.0" d="m97.555115 58.73491l41.10237 0.09448624" fill-rule="evenodd"/><path stroke="#d9d9d9" stroke-width="2.0" stroke-linejoin="round" stroke-linecap="butt" d="m97.555115 58.73491l41.10237 0.09448624" fill-rule="evenodd"/><path fill="#000000" fill-opacity="0.0" d="m97.555115 67.80577l41.10237 0.09449005" fill-rule="evenodd"/><path stroke="#d9d9d9" stroke-width="2.0" stroke-linejoin="round" stroke-linecap="butt" d="m97.555115 67.80577l41.10237 0.09449005" fill-rule="evenodd"/><path fill="#000000" fill-opacity="0.0" d="m97.555115 76.87664l41.10237 0.09449005" fill-rule="evenodd"/><path stroke="#d9d9d9" stroke-width="2.0" stroke-linejoin="round" stroke-linecap="butt" d="m97.555115 76.87664l41.10237 0.09449005" fill-rule="evenodd"/><path fill="#fff2cc" d="m27.28084 19.380577l55.37008 0l0 69.10218l-9.228531 9.228531l-46.14155 0z" fill-rule="evenodd"/><path fill="#cbc1a3" d="m73.422386 97.71129l1.8457108 -7.3828278l7.38282 -1.8457031z" fill-rule="evenodd"/><path fill="#000000" fill-opacity="0.0" d="m73.422386 97.71129l1.8457108 -7.3828278l7.38282 -1.8457031l-9.228531 9.228531l-46.14155 0l0 -78.33071l55.37008 0l0 69.10218" fill-rule="evenodd"/><path fill="#000000" fill-opacity="0.0" d="m33.170605 35.175854l46.07874 0l0 26.141731l-46.07874 0z" fill-rule="evenodd"/><path fill="#000000" d="m37.233105 43.013977q-0.453125 0 -0.828125 -0.171875q-0.359375 -0.1875 -0.578125 -0.53125q-0.203125 -0.359375 -0.203125 -0.84375q0 -0.484375 0.21875 -0.828125q0.234375 -0.34375 0.609375 -0.515625q0.375 -0.1875 0.828125 -0.1875q0.359375 0 0.625 0.125q0.265625 0.109375 0.453125 0.28125l-0.296875 0.390625q-0.171875 -0.15625 -0.359375 -0.234375q-0.171875 -0.078125 -0.390625 -0.078125q-0.3125 0 -0.5625 0.140625q-0.234375 0.125 -0.375 0.359375q-0.140625 0.234375 -0.140625 0.546875q0 0.328125 0.125 0.5625q0.140625 0.234375 0.375 0.375q0.25 0.125 0.5625 0.125q0.25 0 0.46875 -0.109375q0.21875 -0.109375 0.390625 -0.25l0.265625 0.390625q-0.25 0.21875 -0.5625 0.34375q-0.296875 0.109375 -0.625 0.109375zm2.9906464 0q-0.296875 0 -0.515625 -0.109375q-0.21875 -0.109375 -0.359375 -0.296875q-0.125 -0.1875 -0.125 -0.453125q0 -0.484375 0.484375 -0.734375q0.484375 -0.265625 1.59375 -0.34375q-0.015625 -0.1875 -0.09375 -0.328125q-0.0625 -0.15625 -0.234375 -0.234375q-0.15625 -0.09375 -0.40625 -0.09375q-0.1875 0 -0.359375 0.046875q-0.171875 0.03125 -0.34375 0.109375q-0.15625 0.078125 -0.296875 0.171875l-0.21875 -0.40625q0.15625 -0.09375 0.359375 -0.1875q0.21875 -0.109375 0.453125 -0.15625q0.25 -0.0625 0.5 -0.0625q0.40625 0 0.671875 0.15625q0.28125 0.140625 0.421875 0.421875q0.140625 0.265625 0.140625 0.65625l0 1.765625l-0.484375 0l-0.046875 -0.375l-0.03125 0q-0.234375 0.171875 -0.53125 0.3125q-0.28125 0.140625 -0.578125 0.140625zm0.15625 -0.484375q0.234375 0 0.453125 -0.09375q0.234375 -0.109375 0.46875 -0.296875l0 -0.6875q-0.578125 0.03125 -0.90625 0.125q-0.328125 0.09375 -0.46875 0.234375q-0.125 0.125 -0.125 0.3125q0 0.140625 0.078125 0.234375q0.078125 0.09375 0.203125 0.140625q0.140625 0.03125 0.296875 0.03125zm4.3500214 0.484375q-0.453125 0 -0.703125 -0.15625q-0.25 -0.15625 -0.359375 -0.4375q-0.109375 -0.28125 -0.109375 -0.640625l0 -1.296875l-0.796875 0l0 -0.4375l0.828125 -0.046875l0.078125 -0.921875l0.484375 0l0 0.921875l1.390625 0l0 0.484375l-1.390625 0l0 1.296875q0 0.25 0.0625 0.421875q0.0625 0.171875 0.21875 0.25q0.15625 0.078125 0.421875 0.078125q0.203125 0 0.359375 -0.03125q0.171875 -0.03125 0.3125 -0.09375l0.125 0.4375q-0.203125 0.0625 -0.421875 0.109375q-0.21875 0.0625 -0.5 0.0625zm2.6937714 0q-0.296875 0 -0.515625 -0.109375q-0.21875 -0.109375 -0.359375 -0.296875q-0.125 -0.1875 -0.125 -0.453125q0 -0.484375 0.484375 -0.734375q0.484375 -0.265625 1.59375 -0.34375q-0.015625 -0.1875 -0.09375 -0.328125q-0.0625 -0.15625 -0.234375 -0.234375q-0.15625 -0.09375 -0.40625 -0.09375q-0.1875 0 -0.359375 0.046875q-0.171875 0.03125 -0.34375 0.109375q-0.15625 0.078125 -0.296875 0.171875l-0.21875 -0.40625q0.15625 -0.09375 0.359375 -0.1875q0.21875 -0.109375 0.453125 -0.15625q0.25 -0.0625 0.5 -0.0625q0.40625 0 0.671875 0.15625q0.28125 0.140625 0.421875 0.421875q0.140625 0.265625 0.140625 0.65625l0 1.765625l-0.484375 0l-0.046875 -0.375l-0.03125 0q-0.234375 0.171875 -0.53125 0.3125q-0.28125 0.140625 -0.578125 0.140625zm0.15625 -0.484375q0.234375 0 0.453125 -0.09375q0.234375 -0.109375 0.46875 -0.296875l0 -0.6875q-0.578125 0.03125 -0.90625 0.125q-0.328125 0.09375 -0.46875 0.234375q-0.125 0.125 -0.125 0.3125q0 0.140625 0.078125 0.234375q0.078125 0.09375 0.203125 0.140625q0.140625 0.03125 0.296875 0.03125zm2.8187714 0.40625l0 -2.9375l0.484375 0l0.0625 0.6875l0.015625 0q0.21875 -0.359375 0.546875 -0.546875q0.34375 -0.203125 0.71875 -0.203125q0.171875 0 0.3125 0.03125q0.140625 0.015625 0.265625 0.078125l-0.125 0.515625q-0.15625 -0.0625 -0.265625 -0.078125q-0.109375 -0.015625 -0.265625 -0.015625q-0.328125 0 -0.625 0.1875q-0.28125 0.171875 -0.53125 0.609375l0 1.671875l-0.59375 0zm4.2250214 0.078125q-0.296875 0 -0.515625 -0.109375q-0.21875 -0.109375 -0.359375 -0.296875q-0.125 -0.1875 -0.125 -0.453125q0 -0.484375 0.484375 -0.734375q0.484375 -0.265625 1.59375 -0.34375q-0.015625 -0.1875 -0.09375 -0.328125q-0.0625 -0.15625 -0.234375 -0.234375q-0.15625 -0.09375 -0.40625 -0.09375q-0.1875 0 -0.359375 0.046875q-0.171875 0.03125 -0.34375 0.109375q-0.15625 0.078125 -0.296875 0.171875l-0.21875 -0.40625q0.15625 -0.09375 0.359375 -0.1875q0.21875 -0.109375 0.453125 -0.15625q0.25 -0.0625 0.5 -0.0625q0.40625 0 0.671875 0.15625q0.28125 0.140625 0.421875 0.421875q0.140625 0.265625 0.140625 0.65625l0 1.765625l-0.484375 0l-0.046875 -0.375l-0.03125 0q-0.234375 0.171875 -0.53125 0.3125q-0.28125 0.140625 -0.578125 0.140625zm0.15625 -0.484375q0.234375 0 0.453125 -0.09375q0.234375 -0.109375 0.46875 -0.296875l0 -0.6875q-0.578125 0.03125 -0.90625 0.125q-0.328125 0.09375 -0.46875 0.234375q-0.125 0.125 -0.125 0.3125q0 0.140625 0.078125 0.234375q0.078125 0.09375 0.203125 0.140625q0.140625 0.03125 0.296875 0.03125zm4.0531464 0.484375q-0.453125 0 -0.828125 -0.171875q-0.359375 -0.1875 -0.578125 -0.53125q-0.203125 -0.359375 -0.203125 -0.84375q0 -0.484375 0.21875 -0.828125q0.234375 -0.34375 0.609375 -0.515625q0.375 -0.1875 0.828125 -0.1875q0.359375 0 0.625 0.125q0.265625 0.109375 0.453125 0.28125l-0.296875 0.390625q-0.171875 -0.15625 -0.359375 -0.234375q-0.171875 -0.078125 -0.390625 -0.078125q-0.3125 0 -0.5625 0.140625q-0.234375 0.125 -0.375 0.359375q-0.140625 0.234375 -0.140625 0.546875q0 0.328125 0.125 0.5625q0.140625 0.234375 0.375 0.375q0.25 0.125 0.5625 0.125q0.25 0 0.46875 -0.109375q0.21875 -0.109375 0.390625 -0.25l0.265625 0.390625q-0.25 0.21875 -0.5625 0.34375q-0.296875 0.109375 -0.625 0.109375zm3.8968964 0q-0.453125 0 -0.703125 -0.15625q-0.25 -0.15625 -0.359375 -0.4375q-0.109375 -0.28125 -0.109375 -0.640625l0 -1.296875l-0.796875 0l0 -0.4375l0.828125 -0.046875l0.078125 -0.921875l0.484375 0l0 0.921875l1.390625 0l0 0.484375l-1.390625 0l0 1.296875q0 0.25 0.0625 0.421875q0.0625 0.171875 0.21875 0.25q0.15625 0.078125 0.421875 0.078125q0.203125 0 0.359375 -0.03125q0.171875 -0.03125 0.3125 -0.09375l0.125 0.4375q-0.203125 0.0625 -0.421875 0.109375q-0.21875 0.0625 -0.5 0.0625zm6.684414 -0.078125l0 -2.453125l-1.328125 0l0 -0.484375l1.921875 0l0 2.9375l-0.59375 0zm0.234375 -3.5q-0.1875 0 -0.3125 -0.109375q-0.125 -0.125 -0.125 -0.328125q0 -0.1875 0.125 -0.296875q0.125 -0.125 0.3125 -0.125q0.1875 0 0.3125 0.125q0.140625 0.109375 0.140625 0.296875q0 0.203125 -0.140625 0.328125q-0.125 0.109375 -0.3125 0.109375zm3.3656464 3.578125q-0.421875 0 -0.796875 -0.140625q-0.375 -0.140625 -0.640625 -0.328125l0.265625 -0.375q0.25 0.171875 0.546875 0.28125q0.3125 0.09375 0.6875 0.09375q0.34375 0 0.5 -0.109375q0.171875 -0.125 0.171875 -0.28125q0 -0.078125 -0.03125 -0.140625q-0.03125 -0.078125 -0.125 -0.125q-0.078125 -0.0625 -0.25 -0.109375q-0.171875 -0.0625 -0.453125 -0.125q-0.578125 -0.109375 -0.859375 -0.3125q-0.28125 -0.21875 -0.28125 -0.546875q0 -0.375 0.3125 -0.609375q0.328125 -0.25 0.953125 -0.25q0.34375 0 0.65625 0.125q0.3125 0.109375 0.53125 0.25l-0.265625 0.375q-0.21875 -0.140625 -0.46875 -0.21875q-0.25 -0.078125 -0.515625 -0.078125q-0.21875 0 -0.359375 0.046875q-0.125 0.046875 -0.1875 0.140625q-0.0625 0.078125 -0.0625 0.1875q0 0.15625 0.1875 0.25q0.1875 0.09375 0.625 0.1875q0.46875 0.109375 0.734375 0.234375q0.265625 0.125 0.359375 0.296875q0.109375 0.15625 0.109375 0.375q0 0.25 -0.15625 0.453125q-0.15625 0.203125 -0.453125 0.328125q-0.296875 0.125 -0.734375 0.125z" fill-rule="nonzero"/><path fill="#000000" d="m36.62373 50.213978q-0.296875 0 -0.515625 -0.109375q-0.21875 -0.109375 -0.359375 -0.296875q-0.125 -0.1875 -0.125 -0.453125q0 -0.484375 0.484375 -0.734375q0.484375 -0.265625 1.59375 -0.34375q-0.015625 -0.1875 -0.09375 -0.328125q-0.0625 -0.15625 -0.234375 -0.234375q-0.15625 -0.09375 -0.40625 -0.09375q-0.1875 0 -0.359375 0.046875q-0.171875 0.03125 -0.34375 0.109375q-0.15625 0.078125 -0.296875 0.171875l-0.21875 -0.40625q0.15625 -0.09375 0.359375 -0.1875q0.21875 -0.109375 0.453125 -0.15625q0.25 -0.0625 0.5 -0.0625q0.40625 0 0.671875 0.15625q0.28125 0.140625 0.421875 0.421875q0.140625 0.265625 0.140625 0.65625l0 1.765625l-0.484375 0l-0.046875 -0.375l-0.03125 0q-0.234375 0.171875 -0.53125 0.3125q-0.28125 0.140625 -0.578125 0.140625zm0.15625 -0.484375q0.234375 0 0.453125 -0.09375q0.234375 -0.109375 0.46875 -0.296875l0 -0.6875q-0.578125 0.03125 -0.90625 0.125q-0.328125 0.09375 -0.46875 0.234375q-0.125 0.125 -0.125 0.3125q0 0.140625 0.078125 0.234375q0.078125 0.09375 0.203125 0.140625q0.140625 0.03125 0.296875 0.03125zm7.6531677 0.484375q-0.453125 0 -0.828125 -0.171875q-0.359375 -0.1875 -0.578125 -0.53125q-0.203125 -0.359375 -0.203125 -0.84375q0 -0.484375 0.21875 -0.828125q0.234375 -0.34375 0.609375 -0.515625q0.375 -0.1875 0.828125 -0.1875q0.359375 0 0.625 0.125q0.265625 0.109375 0.453125 0.28125l-0.296875 0.390625q-0.171875 -0.15625 -0.359375 -0.234375q-0.171875 -0.078125 -0.390625 -0.078125q-0.3125 0 -0.5625 0.140625q-0.234375 0.125 -0.375 0.359375q-0.140625 0.234375 -0.140625 0.546875q0 0.328125 0.125 0.5625q0.140625 0.234375 0.375 0.375q0.25 0.125 0.5625 0.125q0.25 0 0.46875 -0.109375q0.21875 -0.109375 0.390625 -0.25l0.265625 0.390625q-0.25 0.21875 -0.5625 0.34375q-0.296875 0.109375 -0.625 0.109375zm3.9593964 0q-0.484375 0 -0.75 -0.28125q-0.25 -0.296875 -0.25 -0.828125l0 -2.75l-0.984375 0l0 -0.46875l1.578125 0l0 3.265625q0 0.296875 0.15625 0.4375q0.15625 0.140625 0.390625 0.140625q0.109375 0 0.234375 -0.03125q0.140625 -0.03125 0.296875 -0.109375l0.140625 0.453125q-0.203125 0.0625 -0.390625 0.109375q-0.171875 0.0625 -0.421875 0.0625zm2.9750214 0q-0.375 0 -0.71875 -0.171875q-0.328125 -0.1875 -0.53125 -0.53125q-0.203125 -0.359375 -0.203125 -0.84375q0 -0.484375 0.203125 -0.828125q0.203125 -0.34375 0.53125 -0.515625q0.34375 -0.1875 0.71875 -0.1875q0.390625 0 0.71875 0.1875q0.328125 0.171875 0.53125 0.515625q0.21875 0.34375 0.21875 0.828125q0 0.484375 -0.21875 0.84375q-0.203125 0.34375 -0.53125 0.53125q-0.328125 0.171875 -0.71875 0.171875zm0 -0.484375q0.265625 0 0.453125 -0.125q0.1875 -0.140625 0.296875 -0.375q0.109375 -0.234375 0.109375 -0.5625q0 -0.3125 -0.109375 -0.546875q-0.109375 -0.234375 -0.296875 -0.359375q-0.1875 -0.140625 -0.453125 -0.140625q-0.25 0 -0.453125 0.140625q-0.1875 0.125 -0.296875 0.359375q-0.09375 0.234375 -0.09375 0.546875q0 0.328125 0.09375 0.5625q0.109375 0.234375 0.296875 0.375q0.203125 0.125 0.453125 0.125zm3.2406464 0.484375q-0.515625 0 -0.765625 -0.3125q-0.234375 -0.3125 -0.234375 -0.875l0 -1.828125l0.59375 0l0 1.75q0 0.390625 0.140625 0.578125q0.140625 0.171875 0.46875 0.171875q0.234375 0 0.421875 -0.109375q0.1875 -0.125 0.40625 -0.375l0 -2.015625l0.59375 0l0 2.9375l-0.484375 0l-0.046875 -0.484375l-0.03125 0q-0.21875 0.25 -0.46875 0.40625q-0.25 0.15625 -0.59375 0.15625zm3.7718964 0q-0.578125 0 -0.921875 -0.40625q-0.34375 -0.40625 -0.34375 -1.140625q0 -0.46875 0.1875 -0.8125q0.1875 -0.34375 0.484375 -0.53125q0.296875 -0.1875 0.640625 -0.1875q0.25 0 0.453125 0.09375q0.203125 0.09375 0.375 0.265625l0.03125 0l-0.03125 -0.515625l0 -1.09375l0.59375 0l0 4.25l-0.484375 0l-0.0625 -0.359375l-0.015625 0q-0.171875 0.171875 -0.421875 0.3125q-0.234375 0.125 -0.484375 0.125zm0.125 -0.5q0.203125 0 0.375 -0.09375q0.1875 -0.109375 0.375 -0.296875l0 -1.390625q-0.1875 -0.171875 -0.359375 -0.234375q-0.171875 -0.078125 -0.34375 -0.078125q-0.234375 0 -0.421875 0.140625q-0.1875 0.125 -0.296875 0.359375q-0.109375 0.234375 -0.109375 0.546875q0 0.5 0.203125 0.78125q0.21875 0.265625 0.578125 0.265625zm3.7093964 0.421875l0 -2.453125l-1.328125 0l0 -0.484375l1.921875 0l0 2.9375l-0.59375 0zm0.234375 -3.5q-0.1875 0 -0.3125 -0.109375q-0.125 -0.125 -0.125 -0.328125q0 -0.1875 0.125 -0.296875q0.125 -0.125 0.3125 -0.125q0.1875 0 0.3125 0.125q0.140625 0.109375 0.140625 0.296875q0 0.203125 -0.140625 0.328125q-0.125 0.109375 -0.3125 0.109375zm2.0531425 3.5l0 -2.9375l0.484375 0l0.046875 0.484375l0.03125 0q0.21875 -0.234375 0.46875 -0.390625q0.265625 -0.15625 0.609375 -0.15625q0.5 0 0.734375 0.3125q0.25 0.296875 0.25 0.875l0 1.8125l-0.59375 0l0 -1.734375q0 -0.390625 -0.140625 -0.5625q-0.140625 -0.1875 -0.46875 -0.1875q-0.234375 0 -0.421875 0.125q-0.1875 0.109375 -0.40625 0.34375l0 2.015625l-0.59375 0zm4.8187714 1.328125q-0.421875 0 -0.734375 -0.09375q-0.296875 -0.09375 -0.453125 -0.28125q-0.15625 -0.171875 -0.15625 -0.421875q0 -0.1875 0.109375 -0.359375q0.125 -0.15625 0.359375 -0.28125l0 -0.015625q-0.109375 -0.078125 -0.203125 -0.1875q-0.09375 -0.125 -0.09375 -0.3125q0 -0.140625 0.09375 -0.28125q0.09375 -0.15625 0.25 -0.265625l0 -0.015625q-0.140625 -0.125 -0.25 -0.3125q-0.109375 -0.1875 -0.109375 -0.453125q0 -0.328125 0.15625 -0.5625q0.171875 -0.234375 0.4375 -0.359375q0.265625 -0.125 0.578125 -0.125q0.25 0 0.453125 0.0625l1.203125 0l0 0.46875l-0.71875 0q0.09375 0.09375 0.15625 0.234375q0.0625 0.140625 0.0625 0.296875q0 0.328125 -0.15625 0.5625q-0.140625 0.21875 -0.40625 0.328125q-0.265625 0.109375 -0.59375 0.109375q-0.109375 0 -0.234375 -0.015625q-0.109375 -0.03125 -0.234375 -0.078125q-0.09375 0.078125 -0.15625 0.15625q-0.046875 0.0625 -0.046875 0.15625q0 0.15625 0.140625 0.234375q0.15625 0.078125 0.4375 0.078125l0.625 0q0.578125 0 0.859375 0.15625q0.28125 0.15625 0.28125 0.53125q0 0.28125 -0.203125 0.515625q-0.203125 0.25 -0.578125 0.390625q-0.375 0.140625 -0.875 0.140625zm-0.015625 -2.640625q0.171875 0 0.3125 -0.078125q0.140625 -0.078125 0.21875 -0.21875q0.09375 -0.140625 0.09375 -0.34375q0 -0.1875 -0.09375 -0.328125q-0.078125 -0.140625 -0.21875 -0.21875q-0.140625 -0.09375 -0.3125 -0.09375q-0.15625 0 -0.296875 0.09375q-0.140625 0.078125 -0.234375 0.21875q-0.078125 0.140625 -0.078125 0.328125q0 0.203125 0.078125 0.34375q0.09375 0.140625 0.234375 0.21875q0.140625 0.078125 0.296875 0.078125zm0.078125 2.21875q0.3125 0 0.53125 -0.078125q0.234375 -0.0625 0.359375 -0.1875q0.125 -0.109375 0.125 -0.25q0 -0.203125 -0.15625 -0.265625q-0.15625 -0.0625 -0.46875 -0.0625l-0.515625 0q-0.140625 0 -0.25 -0.015625q-0.109375 0 -0.203125 -0.03125q-0.1875 0.109375 -0.265625 0.21875q-0.0625 0.109375 -0.0625 0.21875q0 0.21875 0.234375 0.328125q0.234375 0.125 0.671875 0.125z" fill-rule="nonzero"/><path fill="#000000" d="m36.96748 57.41398q-0.375 0 -0.71875 -0.171875q-0.328125 -0.1875 -0.53125 -0.53125q-0.203125 -0.359375 -0.203125 -0.84375q0 -0.484375 0.203125 -0.828125q0.203125 -0.34375 0.53125 -0.515625q0.34375 -0.1875 0.71875 -0.1875q0.390625 0 0.71875 0.1875q0.328125 0.171875 0.53125 0.515625q0.21875 0.34375 0.21875 0.828125q0 0.484375 -0.21875 0.84375q-0.203125 0.34375 -0.53125 0.53125q-0.328125 0.171875 -0.71875 0.171875zm0 -0.484375q0.265625 0 0.453125 -0.125q0.1875 -0.140625 0.296875 -0.375q0.109375 -0.234375 0.109375 -0.5625q0 -0.3125 -0.109375 -0.546875q-0.109375 -0.234375 -0.296875 -0.359375q-0.1875 -0.140625 -0.453125 -0.140625q-0.25 0 -0.453125 0.140625q-0.1875 0.125 -0.296875 0.359375q-0.09375 0.234375 -0.09375 0.546875q0 0.328125 0.09375 0.5625q0.109375 0.234375 0.296875 0.375q0.203125 0.125 0.453125 0.125zm3.2093964 0.40625l0 -3.140625q0 -0.34375 0.125 -0.609375q0.140625 -0.28125 0.40625 -0.421875q0.265625 -0.15625 0.6875 -0.15625q0.21875 0 0.4375 0.046875q0.21875 0.046875 0.421875 0.125l-0.140625 0.4375q-0.15625 -0.078125 -0.3125 -0.109375q-0.15625 -0.03125 -0.34375 -0.03125q-0.359375 0 -0.53125 0.1875q-0.15625 0.1875 -0.15625 0.515625l0 3.15625l-0.59375 0zm-0.8125 -2.453125l0 -0.453125l0.828125 -0.03125l1.75 0l0 0.484375l-2.578125 0zm8.965668 2.53125q-0.453125 0 -0.703125 -0.15625q-0.25 -0.15625 -0.359375 -0.4375q-0.109375 -0.28125 -0.109375 -0.640625l0 -1.296875l-0.796875 0l0 -0.4375l0.828125 -0.046875l0.078125 -0.921875l0.484375 0l0 0.921875l1.390625 0l0 0.484375l-1.390625 0l0 1.296875q0 0.25 0.0625 0.421875q0.0625 0.171875 0.21875 0.25q0.15625 0.078125 0.421875 0.078125q0.203125 0 0.359375 -0.03125q0.171875 -0.03125 0.3125 -0.09375l0.125 0.4375q-0.203125 0.0625 -0.421875 0.109375q-0.21875 0.0625 -0.5 0.0625zm1.7718964 -0.078125l0 -4.25l0.59375 0l0 1.125l-0.03125 0.65625l0.015625 0q0.203125 -0.21875 0.453125 -0.375q0.265625 -0.15625 0.609375 -0.15625q0.515625 0 0.75 0.3125q0.234375 0.296875 0.234375 0.875l0 1.8125l-0.59375 0l0 -1.734375q0 -0.390625 -0.140625 -0.5625q-0.140625 -0.1875 -0.46875 -0.1875q-0.234375 0 -0.421875 0.125q-0.1875 0.109375 -0.40625 0.34375l0 2.015625l-0.59375 0zm5.0531464 0.078125q-0.453125 0 -0.8125 -0.171875q-0.359375 -0.1875 -0.578125 -0.53125q-0.203125 -0.359375 -0.203125 -0.84375q0 -0.484375 0.203125 -0.828125q0.21875 -0.34375 0.5625 -0.515625q0.34375 -0.1875 0.734375 -0.1875q0.4375 0 0.734375 0.171875q0.296875 0.171875 0.453125 0.484375q0.15625 0.3125 0.15625 0.71875q0 0.09375 0 0.1875q0 0.078125 -0.015625 0.140625l-2.421875 0l0 -0.4375l2.046875 0l-0.125 0.140625q0 -0.46875 -0.21875 -0.703125q-0.21875 -0.234375 -0.59375 -0.234375q-0.25 0 -0.46875 0.125q-0.21875 0.109375 -0.34375 0.359375q-0.125 0.234375 -0.125 0.578125q0 0.359375 0.140625 0.59375q0.140625 0.234375 0.375 0.359375q0.25 0.125 0.578125 0.125q0.234375 0 0.4375 -0.0625q0.21875 -0.078125 0.40625 -0.203125l0.21875 0.375q-0.234375 0.15625 -0.515625 0.265625q-0.28125 0.09375 -0.625 0.09375zm7.6375427 0q-0.484375 0 -0.75 -0.28125q-0.25 -0.296875 -0.25 -0.828125l0 -2.75l-0.984375 0l0 -0.46875l1.578125 0l0 3.265625q0 0.296875 0.15625 0.4375q0.15625 0.140625 0.390625 0.140625q0.109375 0 0.234375 -0.03125q0.140625 -0.03125 0.296875 -0.109375l0.140625 0.453125q-0.203125 0.0625 -0.390625 0.109375q-0.171875 0.0625 -0.421875 0.0625zm3.1625175 0q-0.453125 0 -0.8125 -0.171875q-0.359375 -0.1875 -0.578125 -0.53125q-0.203125 -0.359375 -0.203125 -0.84375q0 -0.484375 0.203125 -0.828125q0.21875 -0.34375 0.5625 -0.515625q0.34375 -0.1875 0.734375 -0.1875q0.4375 0 0.734375 0.171875q0.296875 0.171875 0.453125 0.484375q0.15625 0.3125 0.15625 0.71875q0 0.09375 0 0.1875q0 0.078125 -0.015625 0.140625l-2.421875 0l0 -0.4375l2.046875 0l-0.125 0.140625q0 -0.46875 -0.21875 -0.703125q-0.21875 -0.234375 -0.59375 -0.234375q-0.25 0 -0.46875 0.125q-0.21875 0.109375 -0.34375 0.359375q-0.125 0.234375 -0.125 0.578125q0 0.359375 0.140625 0.59375q0.140625 0.234375 0.375 0.359375q0.25 0.125 0.578125 0.125q0.234375 0 0.4375 -0.0625q0.21875 -0.078125 0.40625 -0.203125l0.21875 0.375q-0.234375 0.15625 -0.515625 0.265625q-0.28125 0.09375 -0.625 0.09375zm2.1468964 -0.078125l0 -2.9375l0.484375 0l0.046875 0.484375l0.03125 0q0.21875 -0.234375 0.46875 -0.390625q0.265625 -0.15625 0.609375 -0.15625q0.5 0 0.734375 0.3125q0.25 0.296875 0.25 0.875l0 1.8125l-0.59375 0l0 -1.734375q0 -0.390625 -0.140625 -0.5625q-0.140625 -0.1875 -0.46875 -0.1875q-0.234375 0 -0.421875 0.125q-0.1875 0.109375 -0.40625 0.34375l0 2.015625l-0.59375 0zm4.9125214 0.078125q-0.421875 0 -0.796875 -0.140625q-0.375 -0.140625 -0.640625 -0.328125l0.265625 -0.375q0.25 0.171875 0.546875 0.28125q0.3125 0.09375 0.6875 0.09375q0.34375 0 0.5 -0.109375q0.171875 -0.125 0.171875 -0.28125q0 -0.078125 -0.03125 -0.140625q-0.03125 -0.078125 -0.125 -0.125q-0.078125 -0.0625 -0.25 -0.109375q-0.171875 -0.0625 -0.453125 -0.125q-0.578125 -0.109375 -0.859375 -0.3125q-0.28125 -0.21875 -0.28125 -0.546875q0 -0.375 0.3125 -0.609375q0.328125 -0.25 0.953125 -0.25q0.34375 0 0.65625 0.125q0.3125 0.109375 0.53125 0.25l-0.265625 0.375q-0.21875 -0.140625 -0.46875 -0.21875q-0.25 -0.078125 -0.515625 -0.078125q-0.21875 0 -0.359375 0.046875q-0.125 0.046875 -0.1875 0.140625q-0.0625 0.078125 -0.0625 0.1875q0 0.15625 0.1875 0.25q0.1875 0.09375 0.625 0.1875q0.46875 0.109375 0.734375 0.234375q0.265625 0.125 0.359375 0.296875q0.109375 0.15625 0.109375 0.375q0 0.25 -0.15625 0.453125q-0.15625 0.203125 -0.453125 0.328125q-0.296875 0.125 -0.734375 0.125z" fill-rule="nonzero"/><path fill="#000000" fill-opacity="0.0" d="m33.170605 22.860893l47.842518 0l0 11.590549l-47.842518 0z" fill-rule="evenodd"/><path fill="#000000" d="m37.295605 30.699017q-0.359375 0 -0.6875 -0.125q-0.328125 -0.140625 -0.578125 -0.390625q-0.234375 -0.265625 -0.375 -0.640625q-0.125 -0.390625 -0.125 -0.875q0 -0.640625 0.234375 -1.09375q0.234375 -0.46875 0.640625 -0.703125q0.421875 -0.25 0.9375 -0.25q0.359375 0 0.640625 0.15625q0.296875 0.140625 0.484375 0.34375l-0.390625 0.421875q-0.140625 -0.140625 -0.328125 -0.21875q-0.171875 -0.09375 -0.40625 -0.09375q-0.328125 0 -0.578125 0.171875q-0.25 0.171875 -0.390625 0.5q-0.125 0.3125 -0.125 0.75q0 0.4375 0.125 0.765625q0.140625 0.328125 0.390625 0.5q0.265625 0.171875 0.59375 0.171875q0.25 0 0.4375 -0.109375q0.1875 -0.109375 0.359375 -0.28125l0.390625 0.421875q-0.234375 0.28125 -0.546875 0.4375q-0.3125 0.140625 -0.703125 0.140625zm2.8812714 0q-0.28125 0 -0.515625 -0.109375q-0.21875 -0.125 -0.34375 -0.3125q-0.125 -0.1875 -0.125 -0.453125q0 -0.484375 0.46875 -0.75q0.484375 -0.265625 1.5625 -0.34375q0 -0.15625 -0.078125 -0.28125q-0.078125 -0.140625 -0.234375 -0.203125q-0.140625 -0.078125 -0.375 -0.078125q-0.171875 0 -0.34375 0.046875q-0.15625 0.03125 -0.3125 0.109375q-0.15625 0.0625 -0.3125 0.15625l-0.25 -0.46875q0.171875 -0.109375 0.390625 -0.203125q0.21875 -0.09375 0.453125 -0.140625q0.234375 -0.0625 0.5 -0.0625q0.40625 0 0.6875 0.15625q0.28125 0.140625 0.421875 0.421875q0.15625 0.28125 0.15625 0.6875l0 1.75l-0.5625 0l-0.0625 -0.359375l-0.015625 0q-0.234375 0.171875 -0.53125 0.3125q-0.28125 0.125 -0.578125 0.125zm0.21875 -0.546875q0.21875 0 0.421875 -0.09375q0.203125 -0.109375 0.40625 -0.265625l0 -0.625q-0.515625 0.03125 -0.828125 0.125q-0.296875 0.078125 -0.421875 0.203125q-0.109375 0.125 -0.109375 0.28125q0 0.125 0.0625 0.21875q0.078125 0.078125 0.1875 0.125q0.125 0.03125 0.28125 0.03125zm4.3187714 0.546875q-0.453125 0 -0.71875 -0.15625q-0.25 -0.171875 -0.375 -0.453125q-0.109375 -0.28125 -0.109375 -0.65625l0 -1.21875l-0.78125 0l0 -0.515625l0.8125 -0.03125l0.09375 -0.921875l0.5625 0l0 0.921875l1.34375 0l0 0.546875l-1.34375 0l0 1.21875q0 0.234375 0.0625 0.40625q0.078125 0.15625 0.21875 0.234375q0.15625 0.0625 0.40625 0.0625q0.1875 0 0.34375 -0.03125q0.15625 -0.03125 0.296875 -0.078125l0.125 0.5q-0.1875 0.0625 -0.421875 0.109375q-0.21875 0.0625 -0.515625 0.0625zm2.6625214 0q-0.28125 0 -0.515625 -0.109375q-0.21875 -0.125 -0.34375 -0.3125q-0.125 -0.1875 -0.125 -0.453125q0 -0.484375 0.46875 -0.75q0.484375 -0.265625 1.5625 -0.34375q0 -0.15625 -0.078125 -0.28125q-0.078125 -0.140625 -0.234375 -0.203125q-0.140625 -0.078125 -0.375 -0.078125q-0.171875 0 -0.34375 0.046875q-0.15625 0.03125 -0.3125 0.109375q-0.15625 0.0625 -0.3125 0.15625l-0.25 -0.46875q0.171875 -0.109375 0.390625 -0.203125q0.21875 -0.09375 0.453125 -0.140625q0.234375 -0.0625 0.5 -0.0625q0.40625 0 0.6875 0.15625q0.28125 0.140625 0.421875 0.421875q0.15625 0.28125 0.15625 0.6875l0 1.75l-0.5625 0l-0.0625 -0.359375l-0.015625 0q-0.234375 0.171875 -0.53125 0.3125q-0.28125 0.125 -0.578125 0.125zm0.21875 -0.546875q0.21875 0 0.421875 -0.09375q0.203125 -0.109375 0.40625 -0.265625l0 -0.625q-0.515625 0.03125 -0.828125 0.125q-0.296875 0.078125 -0.421875 0.203125q-0.109375 0.125 -0.109375 0.28125q0 0.125 0.0625 0.21875q0.078125 0.078125 0.1875 0.125q0.125 0.03125 0.28125 0.03125zm2.7562714 0.46875l0 -2.953125l0.5625 0l0.0625 0.671875l0.015625 0q0.234375 -0.359375 0.546875 -0.546875q0.328125 -0.1875 0.71875 -0.1875q0.171875 0 0.296875 0.03125q0.140625 0.03125 0.265625 0.09375l-0.140625 0.578125q-0.140625 -0.046875 -0.265625 -0.0625q-0.109375 -0.03125 -0.265625 -0.03125q-0.296875 0 -0.59375 0.171875q-0.28125 0.171875 -0.515625 0.609375l0 1.625l-0.6875 0zm4.2250214 0.078125q-0.28125 0 -0.515625 -0.109375q-0.21875 -0.125 -0.34375 -0.3125q-0.125 -0.1875 -0.125 -0.453125q0 -0.484375 0.46875 -0.75q0.484375 -0.265625 1.5625 -0.34375q0 -0.15625 -0.078125 -0.28125q-0.078125 -0.140625 -0.234375 -0.203125q-0.140625 -0.078125 -0.375 -0.078125q-0.171875 0 -0.34375 0.046875q-0.15625 0.03125 -0.3125 0.109375q-0.15625 0.0625 -0.3125 0.15625l-0.25 -0.46875q0.171875 -0.109375 0.390625 -0.203125q0.21875 -0.09375 0.453125 -0.140625q0.234375 -0.0625 0.5 -0.0625q0.40625 0 0.6875 0.15625q0.28125 0.140625 0.421875 0.421875q0.15625 0.28125 0.15625 0.6875l0 1.75l-0.5625 0l-0.0625 -0.359375l-0.015625 0q-0.234375 0.171875 -0.53125 0.3125q-0.28125 0.125 -0.578125 0.125zm0.21875 -0.546875q0.21875 0 0.421875 -0.09375q0.203125 -0.109375 0.40625 -0.265625l0 -0.625q-0.515625 0.03125 -0.828125 0.125q-0.296875 0.078125 -0.421875 0.203125q-0.109375 0.125 -0.109375 0.28125q0 0.125 0.0625 0.21875q0.078125 0.078125 0.1875 0.125q0.125 0.03125 0.28125 0.03125zm4.0375214 0.546875q-0.453125 0 -0.828125 -0.1875q-0.375 -0.1875 -0.59375 -0.53125q-0.203125 -0.34375 -0.203125 -0.828125q0 -0.5 0.234375 -0.84375q0.234375 -0.34375 0.609375 -0.515625q0.390625 -0.1875 0.828125 -0.1875q0.359375 0 0.640625 0.125q0.28125 0.109375 0.453125 0.28125l-0.328125 0.4375q-0.171875 -0.140625 -0.359375 -0.203125q-0.171875 -0.078125 -0.375 -0.078125q-0.28125 0 -0.515625 0.125q-0.21875 0.125 -0.34375 0.34375q-0.125 0.21875 -0.125 0.515625q0 0.296875 0.109375 0.515625q0.125 0.21875 0.34375 0.34375q0.234375 0.125 0.515625 0.125q0.25 0 0.453125 -0.09375q0.21875 -0.109375 0.390625 -0.234375l0.296875 0.4375q-0.265625 0.21875 -0.578125 0.34375q-0.3125 0.109375 -0.625 0.109375zm3.8812714 0q-0.453125 0 -0.71875 -0.15625q-0.25 -0.171875 -0.375 -0.453125q-0.109375 -0.28125 -0.109375 -0.65625l0 -1.21875l-0.78125 0l0 -0.515625l0.8125 -0.03125l0.09375 -0.921875l0.5625 0l0 0.921875l1.34375 0l0 0.546875l-1.34375 0l0 1.21875q0 0.234375 0.0625 0.40625q0.078125 0.15625 0.21875 0.234375q0.15625 0.0625 0.40625 0.0625q0.1875 0 0.34375 -0.03125q0.15625 -0.03125 0.296875 -0.078125l0.125 0.5q-0.1875 0.0625 -0.421875 0.109375q-0.21875 0.0625 -0.515625 0.0625zm3.0687752 0q-0.40625 0 -0.796875 -0.140625q-0.375 -0.140625 -0.640625 -0.328125l0.296875 -0.4375q0.265625 0.1875 0.5625 0.28125q0.3125 0.09375 0.671875 0.09375q0.3125 0 0.453125 -0.09375q0.15625 -0.109375 0.15625 -0.25q0 -0.078125 -0.046875 -0.140625q-0.03125 -0.0625 -0.109375 -0.109375q-0.078125 -0.046875 -0.25 -0.09375q-0.15625 -0.046875 -0.421875 -0.109375q-0.578125 -0.125 -0.859375 -0.34375q-0.28125 -0.21875 -0.28125 -0.546875q0 -0.390625 0.34375 -0.625q0.34375 -0.25 0.953125 -0.25q0.375 0 0.6875 0.125q0.328125 0.109375 0.546875 0.265625l-0.3125 0.421875q-0.21875 -0.140625 -0.46875 -0.21875q-0.25 -0.078125 -0.515625 -0.078125q-0.1875 0 -0.3125 0.046875q-0.109375 0.046875 -0.171875 0.125q-0.0625 0.0625 -0.0625 0.15625q0 0.15625 0.1875 0.234375q0.1875 0.078125 0.59375 0.171875q0.46875 0.09375 0.71875 0.234375q0.265625 0.125 0.359375 0.296875q0.109375 0.15625 0.109375 0.390625q0 0.25 -0.171875 0.46875q-0.15625 0.203125 -0.46875 0.328125q-0.296875 0.125 -0.75 0.125z" fill-rule="nonzero"/><path fill="#000000" fill-opacity="0.0" d="m35.648293 66.26247l41.102364 0.09449005" fill-rule="evenodd"/><path stroke="#d9d9d9" stroke-width="2.0" stroke-linejoin="round" stroke-linecap="butt" d="m35.648293 66.26247l41.102364 0.09449005" fill-rule="evenodd"/><path fill="#000000" fill-opacity="0.0" d="m35.69685 74.54593l41.10236 0.09449005" fill-rule="evenodd"/><path stroke="#d9d9d9" stroke-width="2.0" stroke-linejoin="round" stroke-linecap="butt" d="m35.69685 74.54593l41.10236 0.09449005" fill-rule="evenodd"/><path fill="#fff2cc" d="m151.64043 104.02887l55.37007 0l0 69.826584l-9.228531 9.228531l-46.14154 0z" fill-rule="evenodd"/><path fill="#cbc1a3" d="m197.78197 183.08398l1.8457031 -7.3828125l7.3828278 -1.8457184z" fill-rule="evenodd"/><path fill="#000000" fill-opacity="0.0" d="m197.78197 183.08398l1.8457031 -7.3828125l7.3828278 -1.8457184l-9.228531 9.228531l-46.14154 0l0 -79.055115l55.37007 0l0 69.826584" fill-rule="evenodd"/><path fill="#000000" fill-opacity="0.0" d="m156.34908 117.75328l47.84253 0l0 33.417328l-47.84253 0z" fill-rule="evenodd"/><path fill="#000000" d="m160.19283 125.59141q-0.421875 0 -0.796875 -0.140625q-0.375 -0.140625 -0.640625 -0.328125l0.265625 -0.375q0.25 0.171875 0.546875 0.28125q0.3125 0.09375 0.6875 0.09375q0.34375 0 0.5 -0.109375q0.171875 -0.125 0.171875 -0.28125q0 -0.078125 -0.03125 -0.140625q-0.03125 -0.078125 -0.125 -0.125q-0.078125 -0.0625 -0.25 -0.109375q-0.171875 -0.0625 -0.453125 -0.125q-0.578125 -0.109375 -0.859375 -0.3125q-0.28125 -0.21875 -0.28125 -0.546875q0 -0.375 0.3125 -0.609375q0.328125 -0.25 0.953125 -0.25q0.34375 0 0.65625 0.125q0.3125 0.109375 0.53125 0.25l-0.265625 0.375q-0.21875 -0.140625 -0.46875 -0.21875q-0.25 -0.078125 -0.515625 -0.078125q-0.21875 0 -0.359375 0.046875q-0.125 0.046875 -0.1875 0.140625q-0.0625 0.078125 -0.0625 0.1875q0 0.15625 0.1875 0.25q0.1875 0.09375 0.625 0.1875q0.46875 0.109375 0.734375 0.234375q0.265625 0.125 0.359375 0.296875q0.109375 0.15625 0.109375 0.375q0 0.25 -0.15625 0.453125q-0.15625 0.203125 -0.453125 0.328125q-0.296875 0.125 -0.734375 0.125zm3.1937714 0q-0.515625 0 -0.765625 -0.3125q-0.234375 -0.3125 -0.234375 -0.875l0 -1.828125l0.59375 0l0 1.75q0 0.390625 0.140625 0.578125q0.140625 0.171875 0.46875 0.171875q0.234375 0 0.421875 -0.109375q0.1875 -0.125 0.40625 -0.375l0 -2.015625l0.59375 0l0 2.9375l-0.484375 0l-0.046875 -0.484375l-0.03125 0q-0.21875 0.25 -0.46875 0.40625q-0.25 0.15625 -0.59375 0.15625zm2.9906464 -0.078125l0 -2.9375l0.484375 0l0.0625 0.6875l0.015625 0q0.21875 -0.359375 0.546875 -0.546875q0.34375 -0.203125 0.71875 -0.203125q0.171875 0 0.3125 0.03125q0.140625 0.015625 0.265625 0.078125l-0.125 0.515625q-0.15625 -0.0625 -0.265625 -0.078125q-0.109375 -0.015625 -0.265625 -0.015625q-0.328125 0 -0.625 0.1875q-0.28125 0.171875 -0.53125 0.609375l0 1.671875l-0.59375 0zm4.5218964 1.328125q-0.421875 0 -0.734375 -0.09375q-0.296875 -0.09375 -0.453125 -0.28125q-0.15625 -0.171875 -0.15625 -0.421875q0 -0.1875 0.109375 -0.359375q0.125 -0.15625 0.359375 -0.28125l0 -0.015625q-0.109375 -0.078125 -0.203125 -0.1875q-0.09375 -0.125 -0.09375 -0.3125q0 -0.140625 0.09375 -0.28125q0.09375 -0.15625 0.25 -0.265625l0 -0.015625q-0.140625 -0.125 -0.25 -0.3125q-0.109375 -0.1875 -0.109375 -0.453125q0 -0.328125 0.15625 -0.5625q0.171875 -0.234375 0.4375 -0.359375q0.265625 -0.125 0.578125 -0.125q0.25 0 0.453125 0.0625l1.203125 0l0 0.46875l-0.71875 0q0.09375 0.09375 0.15625 0.234375q0.0625 0.140625 0.0625 0.296875q0 0.328125 -0.15625 0.5625q-0.140625 0.21875 -0.40625 0.328125q-0.265625 0.109375 -0.59375 0.109375q-0.109375 0 -0.234375 -0.015625q-0.109375 -0.03125 -0.234375 -0.078125q-0.09375 0.078125 -0.15625 0.15625q-0.046875 0.0625 -0.046875 0.15625q0 0.15625 0.140625 0.234375q0.15625 0.078125 0.4375 0.078125l0.625 0q0.578125 0 0.859375 0.15625q0.28125 0.15625 0.28125 0.53125q0 0.28125 -0.203125 0.515625q-0.203125 0.25 -0.578125 0.390625q-0.375 0.140625 -0.875 0.140625zm-0.015625 -2.640625q0.171875 0 0.3125 -0.078125q0.140625 -0.078125 0.21875 -0.21875q0.09375 -0.140625 0.09375 -0.34375q0 -0.1875 -0.09375 -0.328125q-0.078125 -0.140625 -0.21875 -0.21875q-0.140625 -0.09375 -0.3125 -0.09375q-0.15625 0 -0.296875 0.09375q-0.140625 0.078125 -0.234375 0.21875q-0.078125 0.140625 -0.078125 0.328125q0 0.203125 0.078125 0.34375q0.09375 0.140625 0.234375 0.21875q0.140625 0.078125 0.296875 0.078125zm0.078125 2.21875q0.3125 0 0.53125 -0.078125q0.234375 -0.0625 0.359375 -0.1875q0.125 -0.109375 0.125 -0.25q0 -0.203125 -0.15625 -0.265625q-0.15625 -0.0625 -0.46875 -0.0625l-0.515625 0q-0.140625 0 -0.25 -0.015625q-0.109375 0 -0.203125 -0.03125q-0.1875 0.109375 -0.265625 0.21875q-0.0625 0.109375 -0.0625 0.21875q0 0.21875 0.234375 0.328125q0.234375 0.125 0.671875 0.125zm3.7718964 -0.828125q-0.453125 0 -0.8125 -0.171875q-0.359375 -0.1875 -0.578125 -0.53125q-0.203125 -0.359375 -0.203125 -0.84375q0 -0.484375 0.203125 -0.828125q0.21875 -0.34375 0.5625 -0.515625q0.34375 -0.1875 0.734375 -0.1875q0.4375 0 0.734375 0.171875q0.296875 0.171875 0.453125 0.484375q0.15625 0.3125 0.15625 0.71875q0 0.09375 0 0.1875q0 0.078125 -0.015625 0.140625l-2.421875 0l0 -0.4375l2.046875 0l-0.125 0.140625q0 -0.46875 -0.21875 -0.703125q-0.21875 -0.234375 -0.59375 -0.234375q-0.25 0 -0.46875 0.125q-0.21875 0.109375 -0.34375 0.359375q-0.125 0.234375 -0.125 0.578125q0 0.359375 0.140625 0.59375q0.140625 0.234375 0.375 0.359375q0.25 0.125 0.578125 0.125q0.234375 0 0.4375 -0.0625q0.21875 -0.078125 0.40625 -0.203125l0.21875 0.375q-0.234375 0.15625 -0.515625 0.265625q-0.28125 0.09375 -0.625 0.09375zm2.4437714 -0.078125l0 -2.9375l0.484375 0l0.0625 0.6875l0.015625 0q0.21875 -0.359375 0.546875 -0.546875q0.34375 -0.203125 0.71875 -0.203125q0.171875 0 0.3125 0.03125q0.140625 0.015625 0.265625 0.078125l-0.125 0.515625q-0.15625 -0.0625 -0.265625 -0.078125q-0.109375 -0.015625 -0.265625 -0.015625q-0.328125 0 -0.625 0.1875q-0.28125 0.171875 -0.53125 0.609375l0 1.671875l-0.59375 0zm3.5687714 1.234375q-0.09375 0 -0.203125 -0.03125q-0.109375 -0.015625 -0.1875 -0.03125l0.109375 -0.46875q0.0625 0.015625 0.125 0.03125q0.0625 0.015625 0.140625 0.015625q0.28125 0 0.453125 -0.171875q0.1875 -0.15625 0.296875 -0.390625l0.078125 -0.203125l-1.34375 -2.921875l0.59375 0l0.671875 1.53125q0.078125 0.203125 0.15625 0.421875q0.09375 0.21875 0.171875 0.4375l0.03125 0q0.078125 -0.203125 0.15625 -0.421875q0.078125 -0.234375 0.140625 -0.4375l0.578125 -1.53125l0.578125 0l-1.265625 3.125q-0.109375 0.3125 -0.28125 0.546875q-0.171875 0.234375 -0.421875 0.359375q-0.234375 0.140625 -0.578125 0.140625z" fill-rule="nonzero"/><path fill="#000000" d="m158.88033 132.71329l0 -4.25l0.59375 0l0 1.125l-0.03125 0.65625l0.015625 0q0.203125 -0.21875 0.453125 -0.375q0.265625 -0.15625 0.609375 -0.15625q0.515625 0 0.75 0.3125q0.234375 0.296875 0.234375 0.875l0 1.8125l-0.59375 0l0 -1.734375q0 -0.390625 -0.140625 -0.5625q-0.140625 -0.1875 -0.46875 -0.1875q-0.234375 0 -0.421875 0.125q-0.1875 0.109375 -0.40625 0.34375l0 2.015625l-0.59375 0zm5.0531464 0.078125q-0.453125 0 -0.8125 -0.171875q-0.359375 -0.1875 -0.578125 -0.53125q-0.203125 -0.359375 -0.203125 -0.84375q0 -0.484375 0.203125 -0.828125q0.21875 -0.34375 0.5625 -0.515625q0.34375 -0.1875 0.734375 -0.1875q0.4375 0 0.734375 0.171875q0.296875 0.171875 0.453125 0.484375q0.15625 0.3125 0.15625 0.71875q0 0.09375 0 0.1875q0 0.078125 -0.015625 0.140625l-2.421875 0l0 -0.4375l2.046875 0l-0.125 0.140625q0 -0.46875 -0.21875 -0.703125q-0.21875 -0.234375 -0.59375 -0.234375q-0.25 0 -0.46875 0.125q-0.21875 0.109375 -0.34375 0.359375q-0.125 0.234375 -0.125 0.578125q0 0.359375 0.140625 0.59375q0.140625 0.234375 0.375 0.359375q0.25 0.125 0.578125 0.125q0.234375 0 0.4375 -0.0625q0.21875 -0.078125 0.40625 -0.203125l0.21875 0.375q-0.234375 0.15625 -0.515625 0.265625q-0.28125 0.09375 -0.625 0.09375zm4.0375214 0q-0.484375 0 -0.75 -0.28125q-0.25 -0.296875 -0.25 -0.828125l0 -2.75l-0.984375 0l0 -0.46875l1.578125 0l0 3.265625q0 0.296875 0.15625 0.4375q0.15625 0.140625 0.390625 0.140625q0.109375 0 0.234375 -0.03125q0.140625 -0.03125 0.296875 -0.109375l0.140625 0.453125q-0.203125 0.0625 -0.390625 0.109375q-0.171875 0.0625 -0.421875 0.0625zm1.7093964 1.125l0 -4.140625l0.484375 0l0.046875 0.359375l0.015625 0q0.203125 -0.1875 0.453125 -0.296875q0.265625 -0.125 0.53125 -0.125q0.390625 0 0.65625 0.1875q0.265625 0.171875 0.40625 0.515625q0.140625 0.328125 0.140625 0.78125q0 0.5 -0.1875 0.859375q-0.1875 0.359375 -0.484375 0.546875q-0.296875 0.1875 -0.65625 0.1875q-0.1875 0 -0.421875 -0.09375q-0.21875 -0.109375 -0.40625 -0.265625l-0.015625 0l0.03125 0.515625l0 0.96875l-0.59375 0zm1.296875 -1.625q0.234375 0 0.421875 -0.125q0.1875 -0.125 0.296875 -0.359375q0.109375 -0.25 0.109375 -0.59375q0 -0.3125 -0.09375 -0.53125q-0.078125 -0.234375 -0.234375 -0.359375q-0.15625 -0.125 -0.4375 -0.125q-0.171875 0 -0.375 0.09375q-0.203125 0.09375 -0.390625 0.3125l0 1.390625q0.1875 0.15625 0.375 0.234375q0.1875 0.0625 0.328125 0.0625zm3.6156464 0.5q-0.421875 0 -0.796875 -0.140625q-0.375 -0.140625 -0.640625 -0.328125l0.265625 -0.375q0.25 0.171875 0.546875 0.28125q0.3125 0.09375 0.6875 0.09375q0.34375 0 0.5 -0.109375q0.171875 -0.125 0.171875 -0.28125q0 -0.078125 -0.03125 -0.140625q-0.03125 -0.078125 -0.125 -0.125q-0.078125 -0.0625 -0.25 -0.109375q-0.171875 -0.0625 -0.453125 -0.125q-0.578125 -0.109375 -0.859375 -0.3125q-0.28125 -0.21875 -0.28125 -0.546875q0 -0.375 0.3125 -0.609375q0.328125 -0.25 0.953125 -0.25q0.34375 0 0.65625 0.125q0.3125 0.109375 0.53125 0.25l-0.265625 0.375q-0.21875 -0.140625 -0.46875 -0.21875q-0.25 -0.078125 -0.515625 -0.078125q-0.21875 0 -0.359375 0.046875q-0.125 0.046875 -0.1875 0.140625q-0.0625 0.078125 -0.0625 0.1875q0 0.15625 0.1875 0.25q0.1875 0.09375 0.625 0.1875q0.46875 0.109375 0.734375 0.234375q0.265625 0.125 0.359375 0.296875q0.109375 0.15625 0.109375 0.375q0 0.25 -0.15625 0.453125q-0.15625 0.203125 -0.453125 0.328125q-0.296875 0.125 -0.734375 0.125zm6.1531677 1.15625q-0.09375 0 -0.203125 -0.03125q-0.109375 -0.015625 -0.1875 -0.03125l0.109375 -0.46875q0.0625 0.015625 0.125 0.03125q0.0625 0.015625 0.140625 0.015625q0.28125 0 0.453125 -0.171875q0.1875 -0.15625 0.296875 -0.390625l0.078125 -0.203125l-1.34375 -2.921875l0.59375 0l0.671875 1.53125q0.078125 0.203125 0.15625 0.421875q0.09375 0.21875 0.171875 0.4375l0.03125 0q0.078125 -0.203125 0.15625 -0.421875q0.078125 -0.234375 0.140625 -0.4375l0.578125 -1.53125l0.578125 0l-1.265625 3.125q-0.109375 0.3125 -0.28125 0.546875q-0.171875 0.234375 -0.421875 0.359375q-0.234375 0.140625 -0.578125 0.140625zm4.6000214 -1.15625q-0.375 0 -0.71875 -0.171875q-0.328125 -0.1875 -0.53125 -0.53125q-0.203125 -0.359375 -0.203125 -0.84375q0 -0.484375 0.203125 -0.828125q0.203125 -0.34375 0.53125 -0.515625q0.34375 -0.1875 0.71875 -0.1875q0.390625 0 0.71875 0.1875q0.328125 0.171875 0.53125 0.515625q0.21875 0.34375 0.21875 0.828125q0 0.484375 -0.21875 0.84375q-0.203125 0.34375 -0.53125 0.53125q-0.328125 0.171875 -0.71875 0.171875zm0 -0.484375q0.265625 0 0.453125 -0.125q0.1875 -0.140625 0.296875 -0.375q0.109375 -0.234375 0.109375 -0.5625q0 -0.3125 -0.109375 -0.546875q-0.109375 -0.234375 -0.296875 -0.359375q-0.1875 -0.140625 -0.453125 -0.140625q-0.25 0 -0.453125 0.140625q-0.1875 0.125 -0.296875 0.359375q-0.09375 0.234375 -0.09375 0.546875q0 0.328125 0.09375 0.5625q0.109375 0.234375 0.296875 0.375q0.203125 0.125 0.453125 0.125zm3.2406464 0.484375q-0.515625 0 -0.765625 -0.3125q-0.234375 -0.3125 -0.234375 -0.875l0 -1.828125l0.59375 0l0 1.75q0 0.390625 0.140625 0.578125q0.140625 0.171875 0.46875 0.171875q0.234375 0 0.421875 -0.109375q0.1875 -0.125 0.40625 -0.375l0 -2.015625l0.59375 0l0 2.9375l-0.484375 0l-0.046875 -0.484375l-0.03125 0q-0.21875 0.25 -0.46875 0.40625q-0.25 0.15625 -0.59375 0.15625z" fill-rule="nonzero"/><path fill="#000000" d="m160.19283 139.99141q-0.421875 0 -0.796875 -0.140625q-0.375 -0.140625 -0.640625 -0.328125l0.265625 -0.375q0.25 0.171875 0.546875 0.28125q0.3125 0.09375 0.6875 0.09375q0.34375 0 0.5 -0.109375q0.171875 -0.125 0.171875 -0.28125q0 -0.078125 -0.03125 -0.140625q-0.03125 -0.078125 -0.125 -0.125q-0.078125 -0.0625 -0.25 -0.109375q-0.171875 -0.0625 -0.453125 -0.125q-0.578125 -0.109375 -0.859375 -0.3125q-0.28125 -0.21875 -0.28125 -0.546875q0 -0.375 0.3125 -0.609375q0.328125 -0.25 0.953125 -0.25q0.34375 0 0.65625 0.125q0.3125 0.109375 0.53125 0.25l-0.265625 0.375q-0.21875 -0.140625 -0.46875 -0.21875q-0.25 -0.078125 -0.515625 -0.078125q-0.21875 0 -0.359375 0.046875q-0.125 0.046875 -0.1875 0.140625q-0.0625 0.078125 -0.0625 0.1875q0 0.15625 0.1875 0.25q0.1875 0.09375 0.625 0.1875q0.46875 0.109375 0.734375 0.234375q0.265625 0.125 0.359375 0.296875q0.109375 0.15625 0.109375 0.375q0 0.25 -0.15625 0.453125q-0.15625 0.203125 -0.453125 0.328125q-0.296875 0.125 -0.734375 0.125zm3.7406464 0q-0.453125 0 -0.8125 -0.171875q-0.359375 -0.1875 -0.578125 -0.53125q-0.203125 -0.359375 -0.203125 -0.84375q0 -0.484375 0.203125 -0.828125q0.21875 -0.34375 0.5625 -0.515625q0.34375 -0.1875 0.734375 -0.1875q0.4375 0 0.734375 0.171875q0.296875 0.171875 0.453125 0.484375q0.15625 0.3125 0.15625 0.71875q0 0.09375 0 0.1875q0 0.078125 -0.015625 0.140625l-2.421875 0l0 -0.4375l2.046875 0l-0.125 0.140625q0 -0.46875 -0.21875 -0.703125q-0.21875 -0.234375 -0.59375 -0.234375q-0.25 0 -0.46875 0.125q-0.21875 0.109375 -0.34375 0.359375q-0.125 0.234375 -0.125 0.578125q0 0.359375 0.140625 0.59375q0.140625 0.234375 0.375 0.359375q0.25 0.125 0.578125 0.125q0.234375 0 0.4375 -0.0625q0.21875 -0.078125 0.40625 -0.203125l0.21875 0.375q-0.234375 0.15625 -0.515625 0.265625q-0.28125 0.09375 -0.625 0.09375zm3.6000214 0q-0.453125 0 -0.8125 -0.171875q-0.359375 -0.1875 -0.578125 -0.53125q-0.203125 -0.359375 -0.203125 -0.84375q0 -0.484375 0.203125 -0.828125q0.21875 -0.34375 0.5625 -0.515625q0.34375 -0.1875 0.734375 -0.1875q0.4375 0 0.734375 0.171875q0.296875 0.171875 0.453125 0.484375q0.15625 0.3125 0.15625 0.71875q0 0.09375 0 0.1875q0 0.078125 -0.015625 0.140625l-2.421875 0l0 -0.4375l2.046875 0l-0.125 0.140625q0 -0.46875 -0.21875 -0.703125q-0.21875 -0.234375 -0.59375 -0.234375q-0.25 0 -0.46875 0.125q-0.21875 0.109375 -0.34375 0.359375q-0.125 0.234375 -0.125 0.578125q0 0.359375 0.140625 0.59375q0.140625 0.234375 0.375 0.359375q0.25 0.125 0.578125 0.125q0.234375 0 0.4375 -0.0625q0.21875 -0.078125 0.40625 -0.203125l0.21875 0.375q-0.234375 0.15625 -0.515625 0.265625q-0.28125 0.09375 -0.625 0.09375zm7.2781677 0q-0.453125 0 -0.828125 -0.171875q-0.359375 -0.1875 -0.578125 -0.53125q-0.203125 -0.359375 -0.203125 -0.84375q0 -0.484375 0.21875 -0.828125q0.234375 -0.34375 0.609375 -0.515625q0.375 -0.1875 0.828125 -0.1875q0.359375 0 0.625 0.125q0.265625 0.109375 0.453125 0.28125l-0.296875 0.390625q-0.171875 -0.15625 -0.359375 -0.234375q-0.171875 -0.078125 -0.390625 -0.078125q-0.3125 0 -0.5625 0.140625q-0.234375 0.125 -0.375 0.359375q-0.140625 0.234375 -0.140625 0.546875q0 0.328125 0.125 0.5625q0.140625 0.234375 0.375 0.375q0.25 0.125 0.5625 0.125q0.25 0 0.46875 -0.109375q0.21875 -0.109375 0.390625 -0.25l0.265625 0.390625q-0.25 0.21875 -0.5625 0.34375q-0.296875 0.109375 -0.625 0.109375zm3.9593964 0q-0.484375 0 -0.75 -0.28125q-0.25 -0.296875 -0.25 -0.828125l0 -2.75l-0.984375 0l0 -0.46875l1.578125 0l0 3.265625q0 0.296875 0.15625 0.4375q0.15625 0.140625 0.390625 0.140625q0.109375 0 0.234375 -0.03125q0.140625 -0.03125 0.296875 -0.109375l0.140625 0.453125q-0.203125 0.0625 -0.390625 0.109375q-0.171875 0.0625 -0.421875 0.0625zm3.1625214 0q-0.453125 0 -0.8125 -0.171875q-0.359375 -0.1875 -0.578125 -0.53125q-0.203125 -0.359375 -0.203125 -0.84375q0 -0.484375 0.203125 -0.828125q0.21875 -0.34375 0.5625 -0.515625q0.34375 -0.1875 0.734375 -0.1875q0.4375 0 0.734375 0.171875q0.296875 0.171875 0.453125 0.484375q0.15625 0.3125 0.15625 0.71875q0 0.09375 0 0.1875q0 0.078125 -0.015625 0.140625l-2.421875 0l0 -0.4375l2.046875 0l-0.125 0.140625q0 -0.46875 -0.21875 -0.703125q-0.21875 -0.234375 -0.59375 -0.234375q-0.25 0 -0.46875 0.125q-0.21875 0.109375 -0.34375 0.359375q-0.125 0.234375 -0.125 0.578125q0 0.359375 0.140625 0.59375q0.140625 0.234375 0.375 0.359375q0.25 0.125 0.578125 0.125q0.234375 0 0.4375 -0.0625q0.21875 -0.078125 0.40625 -0.203125l0.21875 0.375q-0.234375 0.15625 -0.515625 0.265625q-0.28125 0.09375 -0.625 0.09375zm3.0687714 0q-0.296875 0 -0.515625 -0.109375q-0.21875 -0.109375 -0.359375 -0.296875q-0.125 -0.1875 -0.125 -0.453125q0 -0.484375 0.484375 -0.734375q0.484375 -0.265625 1.59375 -0.34375q-0.015625 -0.1875 -0.09375 -0.328125q-0.0625 -0.15625 -0.234375 -0.234375q-0.15625 -0.09375 -0.40625 -0.09375q-0.1875 0 -0.359375 0.046875q-0.171875 0.03125 -0.34375 0.109375q-0.15625 0.078125 -0.296875 0.171875l-0.21875 -0.40625q0.15625 -0.09375 0.359375 -0.1875q0.21875 -0.109375 0.453125 -0.15625q0.25 -0.0625 0.5 -0.0625q0.40625 0 0.671875 0.15625q0.28125 0.140625 0.421875 0.421875q0.140625 0.265625 0.140625 0.65625l0 1.765625l-0.484375 0l-0.046875 -0.375l-0.03125 0q-0.234375 0.171875 -0.53125 0.3125q-0.28125 0.140625 -0.578125 0.140625zm0.15625 -0.484375q0.234375 0 0.453125 -0.09375q0.234375 -0.109375 0.46875 -0.296875l0 -0.6875q-0.578125 0.03125 -0.90625 0.125q-0.328125 0.09375 -0.46875 0.234375q-0.125 0.125 -0.125 0.3125q0 0.140625 0.078125 0.234375q0.078125 0.09375 0.203125 0.140625q0.140625 0.03125 0.296875 0.03125zm2.8187714 0.40625l0 -2.9375l0.484375 0l0.0625 0.6875l0.015625 0q0.21875 -0.359375 0.546875 -0.546875q0.34375 -0.203125 0.71875 -0.203125q0.171875 0 0.3125 0.03125q0.140625 0.015625 0.265625 0.078125l-0.125 0.515625q-0.15625 -0.0625 -0.265625 -0.078125q-0.109375 -0.015625 -0.265625 -0.015625q-0.328125 0 -0.625 0.1875q-0.28125 0.171875 -0.53125 0.609375l0 1.671875l-0.59375 0zm5.1937714 0.078125q-0.484375 0 -0.75 -0.28125q-0.25 -0.296875 -0.25 -0.828125l0 -2.75l-0.984375 0l0 -0.46875l1.578125 0l0 3.265625q0 0.296875 0.15625 0.4375q0.15625 0.140625 0.390625 0.140625q0.109375 0 0.234375 -0.03125q0.140625 -0.03125 0.296875 -0.109375l0.140625 0.453125q-0.203125 0.0625 -0.390625 0.109375q-0.171875 0.0625 -0.421875 0.0625zm1.9750214 1.15625q-0.09375 0 -0.203125 -0.03125q-0.109375 -0.015625 -0.1875 -0.03125l0.109375 -0.46875q0.0625 0.015625 0.125 0.03125q0.0625 0.015625 0.140625 0.015625q0.28125 0 0.453125 -0.171875q0.1875 -0.15625 0.296875 -0.390625l0.078125 -0.203125l-1.34375 -2.921875l0.59375 0l0.671875 1.53125q0.078125 0.203125 0.15625 0.421875q0.09375 0.21875 0.171875 0.4375l0.03125 0q0.078125 -0.203125 0.15625 -0.421875q0.078125 -0.234375 0.140625 -0.4375l0.578125 -1.53125l0.578125 0l-1.265625 3.125q-0.109375 0.3125 -0.28125 0.546875q-0.171875 0.234375 -0.421875 0.359375q-0.234375 0.140625 -0.578125 0.140625z" fill-rule="nonzero"/><path fill="#000000" d="m159.8022 147.1914q-0.296875 0 -0.515625 -0.109375q-0.21875 -0.109375 -0.359375 -0.296875q-0.125 -0.1875 -0.125 -0.453125q0 -0.484375 0.484375 -0.734375q0.484375 -0.265625 1.59375 -0.34375q-0.015625 -0.1875 -0.09375 -0.328125q-0.0625 -0.15625 -0.234375 -0.234375q-0.15625 -0.09375 -0.40625 -0.09375q-0.1875 0 -0.359375 0.046875q-0.171875 0.03125 -0.34375 0.109375q-0.15625 0.078125 -0.296875 0.171875l-0.21875 -0.40625q0.15625 -0.09375 0.359375 -0.1875q0.21875 -0.109375 0.453125 -0.15625q0.25 -0.0625 0.5 -0.0625q0.40625 0 0.671875 0.15625q0.28125 0.140625 0.421875 0.421875q0.140625 0.265625 0.140625 0.65625l0 1.765625l-0.484375 0l-0.046875 -0.375l-0.03125 0q-0.234375 0.171875 -0.53125 0.3125q-0.28125 0.140625 -0.578125 0.140625zm0.15625 -0.484375q0.234375 0 0.453125 -0.09375q0.234375 -0.109375 0.46875 -0.296875l0 -0.6875q-0.578125 0.03125 -0.90625 0.125q-0.328125 0.09375 -0.46875 0.234375q-0.125 0.125 -0.125 0.3125q0 0.140625 0.078125 0.234375q0.078125 0.09375 0.203125 0.140625q0.140625 0.03125 0.296875 0.03125zm3.7406464 1.734375q-0.421875 0 -0.734375 -0.09375q-0.296875 -0.09375 -0.453125 -0.28125q-0.15625 -0.171875 -0.15625 -0.421875q0 -0.1875 0.109375 -0.359375q0.125 -0.15625 0.359375 -0.28125l0 -0.015625q-0.109375 -0.078125 -0.203125 -0.1875q-0.09375 -0.125 -0.09375 -0.3125q0 -0.140625 0.09375 -0.28125q0.09375 -0.15625 0.25 -0.265625l0 -0.015625q-0.140625 -0.125 -0.25 -0.3125q-0.109375 -0.1875 -0.109375 -0.453125q0 -0.328125 0.15625 -0.5625q0.171875 -0.234375 0.4375 -0.359375q0.265625 -0.125 0.578125 -0.125q0.25 0 0.453125 0.0625l1.203125 0l0 0.46875l-0.71875 0q0.09375 0.09375 0.15625 0.234375q0.0625 0.140625 0.0625 0.296875q0 0.328125 -0.15625 0.5625q-0.140625 0.21875 -0.40625 0.328125q-0.265625 0.109375 -0.59375 0.109375q-0.109375 0 -0.234375 -0.015625q-0.109375 -0.03125 -0.234375 -0.078125q-0.09375 0.078125 -0.15625 0.15625q-0.046875 0.0625 -0.046875 0.15625q0 0.15625 0.140625 0.234375q0.15625 0.078125 0.4375 0.078125l0.625 0q0.578125 0 0.859375 0.15625q0.28125 0.15625 0.28125 0.53125q0 0.28125 -0.203125 0.515625q-0.203125 0.25 -0.578125 0.390625q-0.375 0.140625 -0.875 0.140625zm-0.015625 -2.640625q0.171875 0 0.3125 -0.078125q0.140625 -0.078125 0.21875 -0.21875q0.09375 -0.140625 0.09375 -0.34375q0 -0.1875 -0.09375 -0.328125q-0.078125 -0.140625 -0.21875 -0.21875q-0.140625 -0.09375 -0.3125 -0.09375q-0.15625 0 -0.296875 0.09375q-0.140625 0.078125 -0.234375 0.21875q-0.078125 0.140625 -0.078125 0.328125q0 0.203125 0.078125 0.34375q0.09375 0.140625 0.234375 0.21875q0.140625 0.078125 0.296875 0.078125zm0.078125 2.21875q0.3125 0 0.53125 -0.078125q0.234375 -0.0625 0.359375 -0.1875q0.125 -0.109375 0.125 -0.25q0 -0.203125 -0.15625 -0.265625q-0.15625 -0.0625 -0.46875 -0.0625l-0.515625 0q-0.140625 0 -0.25 -0.015625q-0.109375 0 -0.203125 -0.03125q-0.1875 0.109375 -0.265625 0.21875q-0.0625 0.109375 -0.0625 0.21875q0 0.21875 0.234375 0.328125q0.234375 0.125 0.671875 0.125zm3.2406464 -0.828125q-0.296875 0 -0.515625 -0.109375q-0.21875 -0.109375 -0.359375 -0.296875q-0.125 -0.1875 -0.125 -0.453125q0 -0.484375 0.484375 -0.734375q0.484375 -0.265625 1.59375 -0.34375q-0.015625 -0.1875 -0.09375 -0.328125q-0.0625 -0.15625 -0.234375 -0.234375q-0.15625 -0.09375 -0.40625 -0.09375q-0.1875 0 -0.359375 0.046875q-0.171875 0.03125 -0.34375 0.109375q-0.15625 0.078125 -0.296875 0.171875l-0.21875 -0.40625q0.15625 -0.09375 0.359375 -0.1875q0.21875 -0.109375 0.453125 -0.15625q0.25 -0.0625 0.5 -0.0625q0.40625 0 0.671875 0.15625q0.28125 0.140625 0.421875 0.421875q0.140625 0.265625 0.140625 0.65625l0 1.765625l-0.484375 0l-0.046875 -0.375l-0.03125 0q-0.234375 0.171875 -0.53125 0.3125q-0.28125 0.140625 -0.578125 0.140625zm0.15625 -0.484375q0.234375 0 0.453125 -0.09375q0.234375 -0.109375 0.46875 -0.296875l0 -0.6875q-0.578125 0.03125 -0.90625 0.125q-0.328125 0.09375 -0.46875 0.234375q-0.125 0.125 -0.125 0.3125q0 0.140625 0.078125 0.234375q0.078125 0.09375 0.203125 0.140625q0.140625 0.03125 0.296875 0.03125zm3.8343964 0.40625l0 -2.453125l-1.328125 0l0 -0.484375l1.921875 0l0 2.9375l-0.59375 0zm0.234375 -3.5q-0.1875 0 -0.3125 -0.109375q-0.125 -0.125 -0.125 -0.328125q0 -0.1875 0.125 -0.296875q0.125 -0.125 0.3125 -0.125q0.1875 0 0.3125 0.125q0.140625 0.109375 0.140625 0.296875q0 0.203125 -0.140625 0.328125q-0.125 0.109375 -0.3125 0.109375zm2.0531464 3.5l0 -2.9375l0.484375 0l0.046875 0.484375l0.03125 0q0.21875 -0.234375 0.46875 -0.390625q0.265625 -0.15625 0.609375 -0.15625q0.5 0 0.734375 0.3125q0.25 0.296875 0.25 0.875l0 1.8125l-0.59375 0l0 -1.734375q0 -0.390625 -0.140625 -0.5625q-0.140625 -0.1875 -0.46875 -0.1875q-0.234375 0 -0.421875 0.125q-0.1875 0.109375 -0.40625 0.34375l0 2.015625l-0.59375 0z" fill-rule="nonzero"/><path fill="#000000" fill-opacity="0.0" d="m156.34909 107.509186l47.842514 0l0 11.590553l-47.842514 0z" fill-rule="evenodd"/><path fill="#000000" d="m158.97409 115.26919l0 -3.921875l2.5 0l0 0.578125l-1.8125 0l0 1.015625l1.546875 0l0 0.578125l-1.546875 0l0 1.15625l1.875 0l0 0.59375l-2.5625 0zm3.8031464 1.21875q-0.125 0 -0.234375 -0.03125q-0.109375 -0.015625 -0.1875 -0.03125l0.125 -0.546875q0.0625 0.015625 0.125 0.03125q0.0625 0.015625 0.125 0.015625q0.28125 0 0.4375 -0.15625q0.171875 -0.140625 0.265625 -0.34375l0.078125 -0.1875l-1.328125 -2.921875l0.703125 0l0.59375 1.453125q0.078125 0.203125 0.15625 0.421875q0.09375 0.21875 0.171875 0.4375l0.03125 0q0.0625 -0.203125 0.140625 -0.421875q0.078125 -0.234375 0.140625 -0.4375l0.546875 -1.453125l0.640625 0l-1.21875 3.078125q-0.125 0.34375 -0.296875 0.578125q-0.171875 0.25 -0.421875 0.375q-0.25 0.140625 -0.59375 0.140625zm4.7562714 -1.140625q-0.453125 0 -0.828125 -0.1875q-0.359375 -0.1875 -0.578125 -0.53125q-0.21875 -0.34375 -0.21875 -0.828125q0 -0.484375 0.21875 -0.828125q0.21875 -0.34375 0.5625 -0.53125q0.359375 -0.1875 0.75 -0.1875q0.4375 0 0.734375 0.1875q0.3125 0.171875 0.46875 0.484375q0.15625 0.3125 0.15625 0.71875q0 0.109375 -0.015625 0.203125q0 0.09375 -0.015625 0.15625l-2.359375 0l0 -0.5l1.921875 0l-0.140625 0.15625q0 -0.4375 -0.203125 -0.65625q-0.1875 -0.21875 -0.53125 -0.21875q-0.25 0 -0.453125 0.125q-0.1875 0.109375 -0.296875 0.328125q-0.109375 0.21875 -0.109375 0.5625q0 0.328125 0.125 0.5625q0.125 0.21875 0.359375 0.328125q0.234375 0.109375 0.53125 0.109375q0.234375 0 0.4375 -0.0625q0.203125 -0.0625 0.390625 -0.171875l0.234375 0.421875q-0.234375 0.15625 -0.53125 0.265625q-0.28125 0.09375 -0.609375 0.09375zm7.0281677 0q-0.40625 0 -0.796875 -0.140625q-0.375 -0.140625 -0.640625 -0.328125l0.296875 -0.4375q0.265625 0.1875 0.5625 0.28125q0.3125 0.09375 0.671875 0.09375q0.3125 0 0.453125 -0.09375q0.15625 -0.109375 0.15625 -0.25q0 -0.078125 -0.046875 -0.140625q-0.03125 -0.0625 -0.109375 -0.109375q-0.078125 -0.046875 -0.25 -0.09375q-0.15625 -0.046875 -0.421875 -0.109375q-0.578125 -0.125 -0.859375 -0.34375q-0.28125 -0.21875 -0.28125 -0.546875q0 -0.390625 0.34375 -0.625q0.34375 -0.25 0.953125 -0.25q0.375 0 0.6875 0.125q0.328125 0.109375 0.546875 0.265625l-0.3125 0.421875q-0.21875 -0.140625 -0.46875 -0.21875q-0.25 -0.078125 -0.515625 -0.078125q-0.1875 0 -0.3125 0.046875q-0.109375 0.046875 -0.171875 0.125q-0.0625 0.0625 -0.0625 0.15625q0 0.15625 0.1875 0.234375q0.1875 0.078125 0.59375 0.171875q0.46875 0.09375 0.71875 0.234375q0.265625 0.125 0.359375 0.296875q0.109375 0.15625 0.109375 0.390625q0 0.25 -0.171875 0.46875q-0.15625 0.203125 -0.46875 0.328125q-0.296875 0.125 -0.75 0.125zm3.1937714 0q-0.515625 0 -0.75 -0.3125q-0.234375 -0.3125 -0.234375 -0.890625l0 -1.828125l0.6875 0l0 1.734375q0 0.359375 0.125 0.53125q0.125 0.171875 0.421875 0.171875q0.203125 0 0.375 -0.09375q0.171875 -0.109375 0.375 -0.34375l0 -2.0l0.6875 0l0 2.953125l-0.5625 0l-0.0625 -0.46875l-0.015625 0q-0.21875 0.234375 -0.46875 0.390625q-0.25 0.15625 -0.578125 0.15625zm2.9750214 -0.078125l0 -2.953125l0.5625 0l0.0625 0.671875l0.015625 0q0.234375 -0.359375 0.546875 -0.546875q0.328125 -0.1875 0.71875 -0.1875q0.171875 0 0.296875 0.03125q0.140625 0.03125 0.265625 0.09375l-0.140625 0.578125q-0.140625 -0.046875 -0.265625 -0.0625q-0.109375 -0.03125 -0.265625 -0.03125q-0.296875 0 -0.59375 0.171875q-0.28125 0.171875 -0.515625 0.609375l0 1.625l-0.6875 0zm4.5375214 1.296875q-0.40625 0 -0.71875 -0.09375q-0.296875 -0.078125 -0.46875 -0.25q-0.15625 -0.171875 -0.15625 -0.4375q0 -0.171875 0.109375 -0.34375q0.125 -0.15625 0.359375 -0.28125l0 -0.015625q-0.125 -0.078125 -0.21875 -0.1875q-0.078125 -0.125 -0.078125 -0.3125q0 -0.140625 0.09375 -0.28125q0.09375 -0.15625 0.25 -0.265625l0 -0.015625q-0.15625 -0.125 -0.265625 -0.3125q-0.109375 -0.203125 -0.109375 -0.453125q0 -0.34375 0.171875 -0.578125q0.171875 -0.234375 0.4375 -0.359375q0.28125 -0.125 0.609375 -0.125q0.25 0 0.453125 0.0625l1.203125 0l0 0.53125l-0.671875 0q0.078125 0.09375 0.125 0.21875q0.0625 0.125 0.0625 0.265625q0 0.328125 -0.15625 0.5625q-0.15625 0.21875 -0.421875 0.328125q-0.265625 0.109375 -0.59375 0.109375q-0.109375 0 -0.234375 -0.015625q-0.109375 -0.015625 -0.21875 -0.0625q-0.09375 0.0625 -0.140625 0.125q-0.046875 0.0625 -0.046875 0.15625q0 0.140625 0.140625 0.203125q0.140625 0.0625 0.421875 0.0625l0.59375 0q0.578125 0 0.859375 0.171875q0.296875 0.171875 0.296875 0.5625q0 0.28125 -0.203125 0.515625q-0.203125 0.25 -0.59375 0.375q-0.375 0.140625 -0.890625 0.140625zm0.015625 -2.671875q0.15625 0 0.28125 -0.0625q0.125 -0.0625 0.1875 -0.1875q0.078125 -0.140625 0.078125 -0.328125q0 -0.1875 -0.078125 -0.3125q-0.0625 -0.125 -0.1875 -0.1875q-0.125 -0.078125 -0.28125 -0.078125q-0.15625 0 -0.28125 0.078125q-0.125 0.0625 -0.203125 0.1875q-0.078125 0.125 -0.078125 0.3125q0 0.1875 0.078125 0.328125q0.078125 0.125 0.203125 0.1875q0.125 0.0625 0.28125 0.0625zm0.0625 2.21875q0.296875 0 0.5 -0.0625q0.21875 -0.0625 0.328125 -0.171875q0.125 -0.109375 0.125 -0.234375q0 -0.171875 -0.15625 -0.234375q-0.140625 -0.0625 -0.4375 -0.0625l-0.46875 0q-0.140625 0 -0.25 -0.015625q-0.109375 0 -0.203125 -0.015625q-0.15625 0.078125 -0.21875 0.171875q-0.0625 0.109375 -0.0625 0.203125q0 0.203125 0.21875 0.3125q0.21875 0.109375 0.625 0.109375zm3.7875214 -0.765625q-0.453125 0 -0.828125 -0.1875q-0.359375 -0.1875 -0.578125 -0.53125q-0.21875 -0.34375 -0.21875 -0.828125q0 -0.484375 0.21875 -0.828125q0.21875 -0.34375 0.5625 -0.53125q0.359375 -0.1875 0.75 -0.1875q0.4375 0 0.734375 0.1875q0.3125 0.171875 0.46875 0.484375q0.15625 0.3125 0.15625 0.71875q0 0.109375 -0.015625 0.203125q0 0.09375 -0.015625 0.15625l-2.359375 0l0 -0.5l1.921875 0l-0.140625 0.15625q0 -0.4375 -0.203125 -0.65625q-0.1875 -0.21875 -0.53125 -0.21875q-0.25 0 -0.453125 0.125q-0.1875 0.109375 -0.296875 0.328125q-0.109375 0.21875 -0.109375 0.5625q0 0.328125 0.125 0.5625q0.125 0.21875 0.359375 0.328125q0.234375 0.109375 0.53125 0.109375q0.234375 0 0.4375 -0.0625q0.203125 -0.0625 0.390625 -0.171875l0.234375 0.421875q-0.234375 0.15625 -0.53125 0.265625q-0.28125 0.09375 -0.609375 0.09375zm2.3968964 -0.078125l0 -2.953125l0.5625 0l0.0625 0.671875l0.015625 0q0.234375 -0.359375 0.546875 -0.546875q0.328125 -0.1875 0.71875 -0.1875q0.171875 0 0.296875 0.03125q0.140625 0.03125 0.265625 0.09375l-0.140625 0.578125q-0.140625 -0.046875 -0.265625 -0.0625q-0.109375 -0.03125 -0.265625 -0.03125q-0.296875 0 -0.59375 0.171875q-0.28125 0.171875 -0.515625 0.609375l0 1.625l-0.6875 0zm3.6468964 1.21875q-0.125 0 -0.234375 -0.03125q-0.109375 -0.015625 -0.1875 -0.03125l0.125 -0.546875q0.0625 0.015625 0.125 0.03125q0.0625 0.015625 0.125 0.015625q0.28125 0 0.4375 -0.15625q0.171875 -0.140625 0.265625 -0.34375l0.078125 -0.1875l-1.328125 -2.921875l0.703125 0l0.59375 1.453125q0.078125 0.203125 0.15625 0.421875q0.09375 0.21875 0.171875 0.4375l0.03125 0q0.0625 -0.203125 0.140625 -0.421875q0.078125 -0.234375 0.140625 -0.4375l0.546875 -1.453125l0.640625 0l-1.21875 3.078125q-0.125 0.34375 -0.296875 0.578125q-0.171875 0.25 -0.421875 0.375q-0.25 0.140625 -0.59375 0.140625z" fill-rule="nonzero"/><path fill="#000000" fill-opacity="0.0" d="m157.83464 158.48819l41.10237 0.09448242" fill-rule="evenodd"/><path stroke="#d9d9d9" stroke-width="2.0" stroke-linejoin="round" stroke-linecap="butt" d="m157.83464 158.48819l41.10237 0.09448242" fill-rule="evenodd"/><path fill="#000000" fill-opacity="0.0" d="m157.88321 166.77165l41.102356 0.09448242" fill-rule="evenodd"/><path stroke="#d9d9d9" stroke-width="2.0" stroke-linejoin="round" stroke-linecap="butt" d="m157.88321 166.77165l41.102356 0.09448242" fill-rule="evenodd"/><path fill="#fff2cc" d="m151.63911 19.380577l55.37007 0l0 69.826584l-9.228531 9.228531l-46.14154 0z" fill-rule="evenodd"/><path fill="#cbc1a3" d="m197.78065 98.43569l1.8457031 -7.38282l7.3828278 -1.8457108z" fill-rule="evenodd"/><path fill="#000000" fill-opacity="0.0" d="m197.78065 98.43569l1.8457031 -7.38282l7.3828278 -1.8457108l-9.228531 9.228531l-46.14154 0l0 -79.055115l55.37007 0l0 69.826584" fill-rule="evenodd"/><path fill="#000000" fill-opacity="0.0" d="m158.37927 40.593174l41.102356 0.09449005" fill-rule="evenodd"/><path stroke="#d9d9d9" stroke-width="2.0" stroke-linejoin="round" stroke-linecap="butt" d="m158.37927 40.593174l41.102356 0.09449005" fill-rule="evenodd"/><path fill="#000000" fill-opacity="0.0" d="m158.37927 49.664043l41.102356 0.09448624" fill-rule="evenodd"/><path stroke="#d9d9d9" stroke-width="2.0" stroke-linejoin="round" stroke-linecap="butt" d="m158.37927 49.664043l41.102356 0.09448624" fill-rule="evenodd"/><path fill="#000000" fill-opacity="0.0" d="m158.37927 28.56168l41.102356 0.094488144" fill-rule="evenodd"/><path stroke="#d9d9d9" stroke-width="8.0" stroke-linejoin="round" stroke-linecap="butt" d="m158.37927 28.56168l41.102356 0.094488144" fill-rule="evenodd"/><path fill="#000000" fill-opacity="0.0" d="m158.37927 58.73491l41.102356 0.09448624" fill-rule="evenodd"/><path stroke="#d9d9d9" stroke-width="2.0" stroke-linejoin="round" stroke-linecap="butt" d="m158.37927 58.73491l41.102356 0.09448624" fill-rule="evenodd"/><path fill="#000000" fill-opacity="0.0" d="m158.37927 67.80577l41.102356 0.09449005" fill-rule="evenodd"/><path stroke="#d9d9d9" stroke-width="2.0" stroke-linejoin="round" stroke-linecap="butt" d="m158.37927 67.80577l41.102356 0.09449005" fill-rule="evenodd"/><path fill="#000000" fill-opacity="0.0" d="m158.37927 76.87664l41.102356 0.09449005" fill-rule="evenodd"/><path stroke="#d9d9d9" stroke-width="2.0" stroke-linejoin="round" stroke-linecap="butt" d="m158.37927 76.87664l41.102356 0.09449005" fill-rule="evenodd"/><path fill="#fff2cc" d="m90.814964 104.02887l55.37008 0l0 69.826584l-9.228531 9.228531l-46.14155 0z" fill-rule="evenodd"/><path fill="#cbc1a3" d="m136.95651 183.08398l1.8457031 -7.3828125l7.3828278 -1.8457184z" fill-rule="evenodd"/><path fill="#000000" fill-opacity="0.0" d="m136.95651 183.08398l1.8457031 -7.3828125l7.3828278 -1.8457184l-9.228531 9.228531l-46.14155 0l0 -79.055115l55.37008 0l0 69.826584" fill-rule="evenodd"/><path fill="#000000" fill-opacity="0.0" d="m97.555115 125.24147l41.10237 0.09449005" fill-rule="evenodd"/><path stroke="#d9d9d9" stroke-width="2.0" stroke-linejoin="round" stroke-linecap="butt" d="m97.555115 125.24147l41.10237 0.09449005" fill-rule="evenodd"/><path fill="#000000" fill-opacity="0.0" d="m97.555115 134.31233l41.10237 0.09449768" fill-rule="evenodd"/><path stroke="#d9d9d9" stroke-width="2.0" stroke-linejoin="round" stroke-linecap="butt" d="m97.555115 134.31233l41.10237 0.09449768" fill-rule="evenodd"/><path fill="#000000" fill-opacity="0.0" d="m97.555115 113.20998l41.10237 0.09448242" fill-rule="evenodd"/><path stroke="#d9d9d9" stroke-width="8.0" stroke-linejoin="round" stroke-linecap="butt" d="m97.555115 113.20998l41.10237 0.09448242" fill-rule="evenodd"/><path fill="#000000" fill-opacity="0.0" d="m97.555115 143.38321l41.10237 0.09448242" fill-rule="evenodd"/><path stroke="#d9d9d9" stroke-width="2.0" stroke-linejoin="round" stroke-linecap="butt" d="m97.555115 143.38321l41.10237 0.09448242" fill-rule="evenodd"/><path fill="#000000" fill-opacity="0.0" d="m97.555115 152.45407l41.10237 0.09448242" fill-rule="evenodd"/><path stroke="#d9d9d9" stroke-width="2.0" stroke-linejoin="round" stroke-linecap="butt" d="m97.555115 152.45407l41.10237 0.09448242" fill-rule="evenodd"/><path fill="#000000" fill-opacity="0.0" d="m97.555115 161.52493l41.10237 0.09448242" fill-rule="evenodd"/><path stroke="#d9d9d9" stroke-width="2.0" stroke-linejoin="round" stroke-linecap="butt" d="m97.555115 161.52493l41.10237 0.09448242" fill-rule="evenodd"/><path fill="#000000" fill-opacity="0.0" d="m79.249344 48.24672l77.60629 74.96063" fill-rule="evenodd"/><path stroke="#cc4125" stroke-width="1.0" stroke-linejoin="round" stroke-linecap="butt" d="m83.56491 52.41516l68.975174 66.62375" fill-rule="evenodd"/><path fill="#cc4125" stroke="#cc4125" stroke-width="1.0" stroke-linecap="butt" d="m84.71243 51.227135l-4.411598 -1.9647713l2.1165466 4.340824z" fill-rule="evenodd"/><path fill="#cc4125" stroke="#cc4125" stroke-width="1.0" stroke-linecap="butt" d="m151.39255 120.22694l4.411606 1.9647675l-2.1165466 -4.3408203z" fill-rule="evenodd"/></g></svg>